<svg xmlns="http://www.w3.org/2000/svg" width="840" height="126" viewBox="0 0 840 126" font-family="-apple-system,BlinkMacSystemFont,Segoe UI,Helvetica,Arial,sans-serif">
<g transform="translate(70,18) scale(0.109375)"><path fill="#6E7DF2" d="M224.11 31.92a68 68 0 0 0-96.11-.05l-70.12 69.3A19.9 19.9 0 0 0 52 115.31V187l-28.48 28.51a12 12 0 0 0 17 17L69 204h71.7a19.87 19.87 0 0 0 14.15-5.86h.05l69.21-70a68.06 68.06 0 0 0 0-96.22m-79.21 17A44 44 0 0 1 210 108h-45l27.52-27.51a12 12 0 0 0-17-17L124 115V69.54ZM76 117l24-23.72V139l-24 24Zm63 63H93l48-48h45.5Z"/></g>
<text x="84" y="82" text-anchor="middle" font-size="17" font-weight="600" fill="#1f2328">의존성 0</text>
<rect x="54.5" y="90" width="59.1" height="3" rx="1.5" fill="#6E7DF2"/>
<text x="84" y="114" text-anchor="middle" font-size="13" fill="#6b7280">perl만</text>
<g transform="translate(238,18) scale(0.109375)"><path fill="#6E7DF2" d="m224.15 179.17l-46.82-46.82l37.92-13.51c.26-.09.51-.19.76-.3a20 20 0 0 0-1.76-37.27L54.16 29A20 20 0 0 0 29 54.16l52.27 160.08a20 20 0 0 0 37.27 1.76c.11-.25.21-.5.3-.76l13.51-37.92l46.83 46.82a20 20 0 0 0 28.28 0l16.69-16.68a20 20 0 0 0 0-28.29m-30.83 25.17l-48.48-48.48A20 20 0 0 0 130.7 150a20.5 20.5 0 0 0-3.73.35A20 20 0 0 0 112.35 162c-.11.25-.2.5-.3.76L100.4 195.5L54.29 54.29L195.5 100.4l-32.71 11.65c-.25.09-.51.19-.76.3a20 20 0 0 0-6.16 32.48l48.48 48.48ZM84 16v-4a12 12 0 0 1 24 0v4a12 12 0 0 1-24 0m-72 92a12 12 0 0 1 0-24h4a12 12 0 0 1 0 24Zm108.62-83.79l4-12a12 12 0 0 1 22.77 7.58l-4 12a12 12 0 0 1-22.77-7.58m-81.23 104a12 12 0 0 1-7.59 15.17l-12 4a12 12 0 1 1-7.59-22.76l12-4a12 12 0 0 1 15.18 7.59"/></g>
<text x="252" y="82" text-anchor="middle" font-size="17" font-weight="600" fill="#1f2328">Finder 우클릭</text>
<rect x="202.7" y="90" width="98.7" height="3" rx="1.5" fill="#6E7DF2"/>
<text x="252" y="114" text-anchor="middle" font-size="13" fill="#6b7280">빠른 동작</text>
<g transform="translate(406,18) scale(0.109375)"><path fill="#6E7DF2" d="M72.5 150.63L100.79 128L72.5 105.37a12 12 0 1 1 15-18.74l40 32a12 12 0 0 1 0 18.74l-40 32a12 12 0 0 1-15-18.74M144 172h32a12 12 0 0 0 0-24h-32a12 12 0 0 0 0 24m92-116v144a20 20 0 0 1-20 20H40a20 20 0 0 1-20-20V56a20 20 0 0 1 20-20h176a20 20 0 0 1 20 20m-24 4H44v136h168Z"/></g>
<text x="420" y="82" text-anchor="middle" font-size="17" font-weight="600" fill="#1f2328">CLI 명령</text>
<rect x="390.1" y="90" width="59.7" height="3" rx="1.5" fill="#6E7DF2"/>
<text x="420" y="114" text-anchor="middle" font-size="13" fill="#6b7280">자동화</text>
<g transform="translate(574,18) scale(0.109375)"><path fill="#6E7DF2" d="M228 56h-68l-26.67-20a20.12 20.12 0 0 0-12-4H76a20 20 0 0 0-20 20v20H36a20 20 0 0 0-20 20v112a20 20 0 0 0 20 20h152.89A19.13 19.13 0 0 0 208 204.89V184h20.89A19.13 19.13 0 0 0 248 164.89V76a20 20 0 0 0-20-20m-44 144H40V96h40l28.8 21.6a12 12 0 0 0 7.2 2.4h68Zm40-40h-16v-44a20 20 0 0 0-20-20h-68L93.33 76a20.12 20.12 0 0 0-12-4H80V56h40l28.8 21.6A12 12 0 0 0 156 80h68Z"/></g>
<text x="588" y="82" text-anchor="middle" font-size="17" font-weight="600" fill="#1f2328">폴더 일괄</text>
<rect x="556.5" y="90" width="62.9" height="3" rx="1.5" fill="#6E7DF2"/>
<text x="588" y="114" text-anchor="middle" font-size="13" fill="#6b7280">하위까지</text>
<g transform="translate(742,18) scale(0.109375)"><path fill="#6E7DF2" d="M208 36H48a20 20 0 0 0-20 20v56c0 54.29 26.32 87.22 48.4 105.29c23.71 19.39 47.44 26 48.44 26.29a12.1 12.1 0 0 0 6.32 0c1-.28 24.73-6.9 48.44-26.29c22.08-18.07 48.4-51 48.4-105.29V56a20 20 0 0 0-20-20m-4 76c0 35.71-13.09 64.69-38.91 86.15A126.3 126.3 0 0 1 128 219.38a126.1 126.1 0 0 1-37.09-21.23C65.09 176.69 52 147.71 52 112V60h152ZM79.51 144.49a12 12 0 1 1 17-17L112 143l47.51-47.52a12 12 0 0 1 17 17l-56 56a12 12 0 0 1-17 0Z"/></g>
<text x="756" y="82" text-anchor="middle" font-size="17" font-weight="600" fill="#1f2328">안전</text>
<rect x="741.3" y="90" width="29.4" height="3" rx="1.5" fill="#6E7DF2"/>
<text x="756" y="114" text-anchor="middle" font-size="13" fill="#6b7280">재실행 안전</text>
</svg>
